<?xml version="1.0" encoding="utf-8"?>
<svg xmlns="http://www.w3.org/2000/svg" viewBox="0 0 500 500">
  <path d="M 184.949 16.187 C 277.116 16.187 350.376 48.702 350.376 90.085 L 350.376 104.865 L 350.376 400.46 C 350.376 416.81 339.815 430.02 326.743 430.02 L 326.743 459.578 C 326.743 475.929 316.183 489.138 303.11 489.138 L 279.479 489.138 C 266.406 489.138 255.846 475.929 255.846 459.578 L 255.846 430.02 L 114.051 430.02 L 114.051 459.578 C 114.051 475.929 103.491 489.138 90.418 489.138 L 66.786 489.138 C 53.714 489.138 43.154 475.929 43.154 459.578 L 43.154 430.02 C 30.082 430.02 19.522 416.81 19.522 400.46 L 19.522 104.865 L 19.522 90.085 C 19.522 48.702 92.782 16.187 184.949 16.187 Z M 66.786 134.425 L 66.786 252.662 C 66.786 269.013 77.347 282.222 90.418 282.222 L 279.479 282.222 C 292.55 282.222 303.11 269.013 303.11 252.662 L 303.11 134.425 C 303.11 118.074 292.55 104.865 279.479 104.865 L 90.418 104.865 C 77.347 104.865 66.786 118.074 66.786 134.425 Z M 78.603 385.68 C 96.796 385.68 108.165 361.047 99.069 341.341 C 94.848 332.195 87.046 326.561 78.603 326.561 C 60.411 326.561 49.041 351.194 58.138 370.9 C 62.359 380.046 70.159 385.68 78.603 385.68 Z M 291.295 385.68 C 309.487 385.68 320.857 361.047 311.761 341.341 C 307.54 332.195 299.738 326.561 291.295 326.561 C 273.103 326.561 261.733 351.194 270.829 370.9 C 275.051 380.046 282.852 385.68 291.295 385.68 Z" style="stroke-width: 1;"/>
  <path d="M 454.045 215.93 C 454.045 198.548 438.826 187.684 426.651 196.375 C 421 200.408 417.519 207.863 417.519 215.93 C 417.519 233.313 432.738 244.176 444.914 235.485 C 450.564 231.452 454.045 223.997 454.045 215.93 Z M 380.118 275.909 C 383.884 271.252 389.021 268.617 394.386 268.617 C 395.109 268.617 395.832 268.664 396.517 268.758 L 384.646 312.837 C 381.107 326.009 385.293 340.498 394.843 347.883 L 427.639 373.239 L 417.975 415.012 C 416.112 423.01 419.878 431.336 426.346 433.641 C 432.815 435.946 439.549 431.289 441.413 423.292 L 452.333 376.062 C 454.578 366.371 451.343 356.022 444.457 350.706 L 422.846 334.006 L 434.603 295.243 L 436.543 301.029 C 442.251 317.87 455.529 328.831 470.292 328.831 L 478.396 328.831 C 485.13 328.831 490.571 322.104 490.571 313.778 C 490.571 305.451 485.13 298.724 478.396 298.724 L 470.292 298.724 C 465.383 298.724 460.932 295.055 459.067 289.457 L 456.67 282.401 C 451.115 265.889 439.891 253.281 426.042 248.013 L 407.513 240.956 C 403.289 239.357 398.875 238.51 394.424 238.51 C 382.63 238.51 371.291 244.296 362.958 254.646 L 354.131 265.512 C 349.376 271.393 349.376 280.942 354.131 286.823 C 358.887 292.703 366.611 292.703 371.367 286.823 L 380.156 275.956 L 380.118 275.909 Z M 366.992 358.938 L 344.467 358.938 C 337.733 358.938 332.292 365.665 332.292 373.992 C 332.292 382.318 337.733 389.045 344.467 389.045 L 370.948 389.045 C 378.178 389.045 384.721 383.776 387.651 375.638 L 392.027 363.454 L 388.413 360.632 C 381.754 355.504 376.808 348.024 373.992 339.51 L 366.992 358.938 Z" style="stroke-width: 1; fill: rgb(6, 2, 2);"/>
</svg>