<?xml version="1.0" encoding="utf-8"?>
<svg xmlns="http://www.w3.org/2000/svg" viewBox="0 0 500 500">
  <path d="M 184.949 16.187 C 277.116 16.187 350.376 48.702 350.376 90.085 L 350.376 104.865 L 350.376 400.46 C 350.376 416.81 339.815 430.02 326.743 430.02 L 326.743 459.578 C 326.743 475.929 316.183 489.138 303.11 489.138 L 279.479 489.138 C 266.406 489.138 255.846 475.929 255.846 459.578 L 255.846 430.02 L 114.051 430.02 L 114.051 459.578 C 114.051 475.929 103.491 489.138 90.418 489.138 L 66.786 489.138 C 53.714 489.138 43.154 475.929 43.154 459.578 L 43.154 430.02 C 30.082 430.02 19.522 416.81 19.522 400.46 L 19.522 104.865 L 19.522 90.085 C 19.522 48.702 92.782 16.187 184.949 16.187 Z M 66.786 134.425 L 66.786 252.662 C 66.786 269.013 77.347 282.222 90.418 282.222 L 279.479 282.222 C 292.55 282.222 303.11 269.013 303.11 252.662 L 303.11 134.425 C 303.11 118.074 292.55 104.865 279.479 104.865 L 90.418 104.865 C 77.347 104.865 66.786 118.074 66.786 134.425 Z M 78.603 385.68 C 96.796 385.68 108.165 361.047 99.069 341.341 C 94.848 332.195 87.046 326.561 78.603 326.561 C 60.411 326.561 49.041 351.194 58.138 370.9 C 62.359 380.046 70.159 385.68 78.603 385.68 Z M 291.295 385.68 C 309.487 385.68 320.857 361.047 311.761 341.341 C 307.54 332.195 299.738 326.561 291.295 326.561 C 273.103 326.561 261.733 351.194 270.829 370.9 C 275.051 380.046 282.852 385.68 291.295 385.68 Z" style="stroke-width: 1;"/>
  <path d="M 454.044 411.617 C 454.044 428.999 438.825 439.863 426.65 431.172 C 420.999 427.139 417.518 419.684 417.518 411.617 C 417.518 394.234 432.737 383.371 444.913 392.062 C 450.563 396.095 454.044 403.55 454.044 411.617 Z M 380.117 351.638 C 383.883 356.295 389.02 358.93 394.385 358.93 C 395.108 358.93 395.831 358.883 396.516 358.789 L 384.645 313.29 C 381.106 300.118 385.292 287.049 394.842 279.664 L 427.638 254.308 L 417.974 212.535 C 416.111 204.537 419.877 196.211 426.345 193.906 C 432.814 191.601 439.548 196.258 441.412 204.255 L 452.332 251.485 C 454.577 261.176 451.342 271.525 444.456 276.841 L 422.845 293.541 L 434.602 332.304 L 436.542 326.518 C 442.25 309.677 455.528 298.716 470.291 298.716 L 478.395 298.716 C 485.129 298.716 490.57 305.443 490.57 313.769 C 490.57 322.096 485.129 328.823 478.395 328.823 L 470.291 328.823 C 465.382 328.823 460.931 332.492 459.066 338.09 L 456.669 345.146 C 451.114 361.658 439.89 374.266 426.041 379.534 L 407.512 386.591 C 403.288 388.19 398.874 389.037 394.423 389.037 C 382.629 389.037 371.29 383.251 362.957 372.901 L 354.13 362.035 C 349.375 356.154 345.825 350.155 350.58 344.274 C 355.336 338.394 366.61 334.844 371.366 340.724 L 380.155 351.591 L 380.117 351.638 Z M 366.991 268.609 L 344.466 268.609 C 337.732 268.609 332.291 261.882 332.291 253.555 C 332.291 245.229 337.732 238.502 344.466 238.502 L 370.947 238.502 C 378.177 238.502 384.72 243.771 387.65 251.909 L 392.026 264.093 L 388.412 266.915 C 381.753 272.043 376.807 279.523 373.991 288.037 L 366.991 268.609 Z" style="stroke-width: 1; fill: rgb(6, 2, 2); transform-box: fill-box; transform-origin: 50% 50%;" transform="matrix(-1, 0, 0, -1, -0.000003, 0.000063)"/>
</svg>